<svg xmlns="http://www.w3.org/2000/svg" viewBox="0 0 1024 1024" role="img" aria-label="coding-agent-preheat icon">
  <rect x="64" y="64" width="896" height="896" rx="210" fill="#1d4ed8"/>
  <rect x="160" y="160" width="704" height="704" rx="150" fill="#0f172a" opacity="0.28"/>
  <rect x="204" y="292" width="616" height="464" rx="92" fill="#0b1220"/>

  <path d="M352 454L248 558L352 662L410 604L364 558L410 512Z" fill="#f8fafc"/>
  <rect x="470" y="620" width="190" height="64" rx="32" fill="#67e8f9"/>

  <circle cx="700" cy="374" r="128" fill="#172554"/>
  <path d="M700 246A128 128 0 0 1 828 374H762A62 62 0 0 0 700 312Z" fill="#38bdf8"/>
  <rect x="680" y="292" width="40" height="102" rx="20" fill="#fbbf24"/>
  <path d="M700 382L790 434C810 446 817 472 805 492C793 512 767 519 747 507L660 456Z" fill="#f59e0b"/>
  <circle cx="700" cy="374" r="22" fill="#fde68a"/>
</svg>
